<?xml version="1.0" encoding="UTF-8" standalone="no"?><svg xmlns="http://www.w3.org/2000/svg" xmlns:xlink="http://www.w3.org/1999/xlink" contentScriptType="application/ecmascript" contentStyleType="text/css" height="215px" preserveAspectRatio="none" style="width:158px;height:215px;" version="1.1" viewBox="0 0 158 215" width="158px" zoomAndPan="magnify"><defs><filter height="300%" id="f117g7dxaywto9" width="300%" x="-1" y="-1"><feGaussianBlur result="blurOut" stdDeviation="2.0"/><feColorMatrix in="blurOut" result="blurOut2" type="matrix" values="0 0 0 0 0 0 0 0 0 0 0 0 0 0 0 0 0 0 .4 0"/><feOffset dx="4.0" dy="4.0" in="blurOut2" result="blurOut3"/><feBlend in="SourceGraphic" in2="blurOut3" mode="normal"/></filter></defs><g><!--MD5=[aa7f586532e18719e6cefa70fc650583]
class Object--><rect fill="#FEFECE" filter="url(#f117g7dxaywto9)" height="60.8047" id="Object" style="stroke:#A80036;stroke-width:1.5;" width="72" x="39.5" y="7"/><ellipse cx="54.5" cy="23" fill="#ADD1B2" rx="11" ry="11" style="stroke:#A80036;stroke-width:1.0;"/><path d="M56.8438,18.6719 C55.9063,18.2344 55.3125,18.0938 54.4375,18.0938 C51.8125,18.0938 49.8125,20.1719 49.8125,22.8906 L49.8125,24.0156 C49.8125,26.5938 51.9219,28.4844 54.8125,28.4844 C56.0313,28.4844 57.1875,28.1875 57.9375,27.6406 C58.5156,27.2344 58.8438,26.7813 58.8438,26.3906 C58.8438,25.9375 58.4531,25.5469 57.9844,25.5469 C57.7656,25.5469 57.5625,25.625 57.375,25.8125 C56.9219,26.2969 56.9219,26.2969 56.7344,26.3906 C56.3125,26.6563 55.625,26.7813 54.8594,26.7813 C52.8125,26.7813 51.5156,25.6875 51.5156,23.9844 L51.5156,22.8906 C51.5156,21.1094 52.7656,19.7969 54.5,19.7969 C55.0781,19.7969 55.6875,19.9531 56.1563,20.2031 C56.6406,20.4844 56.8125,20.7031 56.9063,21.1094 C56.9688,21.5156 57,21.6406 57.1406,21.7656 C57.2813,21.9063 57.5156,22.0156 57.7344,22.0156 C58,22.0156 58.2656,21.875 58.4375,21.6563 C58.5469,21.5 58.5781,21.3125 58.5781,20.8906 L58.5781,19.4688 C58.5781,19.0313 58.5625,18.9063 58.4688,18.75 C58.3125,18.4844 58.0313,18.3438 57.7344,18.3438 C57.4375,18.3438 57.2344,18.4375 57.0156,18.75 L56.8438,18.6719 Z " fill="#000000"/><text fill="#000000" font-family="sans-serif" font-size="12" lengthAdjust="spacing" textLength="40" x="68.5" y="27.1543">Object</text><line style="stroke:#A80036;stroke-width:1.5;" x1="40.5" x2="110.5" y1="39" y2="39"/><line style="stroke:#A80036;stroke-width:1.5;" x1="40.5" x2="110.5" y1="47" y2="47"/><text fill="#000000" font-family="sans-serif" font-size="11" lengthAdjust="spacing" textLength="46" x="45.5" y="61.2104">equals()</text><!--MD5=[ab8871ed637f40707b866ba6597734bc]
class ArrayList--><rect fill="#FEFECE" filter="url(#f117g7dxaywto9)" height="73.6094" id="ArrayList" style="stroke:#A80036;stroke-width:1.5;" width="137" x="7" y="128"/><ellipse cx="45.85" cy="144" fill="#ADD1B2" rx="11" ry="11" style="stroke:#A80036;stroke-width:1.0;"/><path d="M48.1938,139.6719 C47.2563,139.2344 46.6625,139.0938 45.7875,139.0938 C43.1625,139.0938 41.1625,141.1719 41.1625,143.8906 L41.1625,145.0156 C41.1625,147.5938 43.2719,149.4844 46.1625,149.4844 C47.3813,149.4844 48.5375,149.1875 49.2875,148.6406 C49.8656,148.2344 50.1938,147.7813 50.1938,147.3906 C50.1938,146.9375 49.8031,146.5469 49.3344,146.5469 C49.1156,146.5469 48.9125,146.625 48.725,146.8125 C48.2719,147.2969 48.2719,147.2969 48.0844,147.3906 C47.6625,147.6563 46.975,147.7813 46.2094,147.7813 C44.1625,147.7813 42.8656,146.6875 42.8656,144.9844 L42.8656,143.8906 C42.8656,142.1094 44.1156,140.7969 45.85,140.7969 C46.4281,140.7969 47.0375,140.9531 47.5063,141.2031 C47.9906,141.4844 48.1625,141.7031 48.2563,142.1094 C48.3188,142.5156 48.35,142.6406 48.4906,142.7656 C48.6313,142.9063 48.8656,143.0156 49.0844,143.0156 C49.35,143.0156 49.6156,142.875 49.7875,142.6563 C49.8969,142.5 49.9281,142.3125 49.9281,141.8906 L49.9281,140.4688 C49.9281,140.0313 49.9125,139.9063 49.8188,139.75 C49.6625,139.4844 49.3813,139.3438 49.0844,139.3438 C48.7875,139.3438 48.5844,139.4375 48.3656,139.75 L48.1938,139.6719 Z " fill="#000000"/><text fill="#000000" font-family="sans-serif" font-size="12" lengthAdjust="spacing" textLength="52" x="65.15" y="148.1543">ArrayList</text><line style="stroke:#A80036;stroke-width:1.5;" x1="8" x2="143" y1="160" y2="160"/><text fill="#000000" font-family="sans-serif" font-size="11" lengthAdjust="spacing" textLength="125" x="13" y="174.2104">Object[] elementData</text><line style="stroke:#A80036;stroke-width:1.5;" x1="8" x2="143" y1="180.8047" y2="180.8047"/><text fill="#000000" font-family="sans-serif" font-size="11" lengthAdjust="spacing" textLength="32" x="13" y="195.0151">size()</text><!--MD5=[78ed3d54c6ad96fb6434a4e45aa4b5f0]
reverse link Object to ArrayList--><path codeLine="1" d="M75.5,88.505 C75.5,101.621 75.5,115.5128 75.5,127.7555 " fill="none" id="Object-backto-ArrayList" style="stroke:#A80036;stroke-width:1.0;"/><polygon fill="none" points="68.5001,88.242,75.5,68.242,82.5001,88.242,68.5001,88.242" style="stroke:#A80036;stroke-width:1.0;"/><!--MD5=[a891e7afeaa7bed4d5b4d00d0a4ed74d]
@startuml
Object <|- - ArrayList

Object : equals()
ArrayList : Object[] elementData
ArrayList : size()
@enduml

PlantUML version 1.2021.2beta2(Unknown compile time)
(GPL source distribution)
Java Runtime: Java(TM) SE Runtime Environment
JVM: Java HotSpot(TM) 64-Bit Server VM
Default Encoding: UTF-8
Language: en
Country: US
--></g></svg>