<?xml version="1.0" encoding="UTF-8" standalone="no"?><svg xmlns="http://www.w3.org/2000/svg" xmlns:xlink="http://www.w3.org/1999/xlink" contentScriptType="application/ecmascript" contentStyleType="text/css" height="195px" preserveAspectRatio="none" style="width:343px;height:195px;" version="1.1" viewBox="0 0 343 195" width="343px" zoomAndPan="magnify"><defs><filter height="300%" id="fwzvmr8bfjsld" width="300%" x="-1" y="-1"><feGaussianBlur result="blurOut" stdDeviation="2.0"/><feColorMatrix in="blurOut" result="blurOut2" type="matrix" values="0 0 0 0 0 0 0 0 0 0 0 0 0 0 0 0 0 0 .4 0"/><feOffset dx="4.0" dy="4.0" in="blurOut2" result="blurOut3"/><feBlend in="SourceGraphic" in2="blurOut3" mode="normal"/></filter></defs><g><!--MD5=[4272a0a1957754cd214430d460c5f4ca]
class Foo1--><rect codeLine="1" fill="#FEFECE" filter="url(#fwzvmr8bfjsld)" height="174.4375" id="Foo1" style="stroke:#A80036;stroke-width:1.5;" width="185" x="7" y="7"/><ellipse cx="80.25" cy="23" fill="#ADD1B2" rx="11" ry="11" style="stroke:#A80036;stroke-width:1.0;"/><path d="M82.5938,18.6719 C81.6563,18.2344 81.0625,18.0938 80.1875,18.0938 C77.5625,18.0938 75.5625,20.1719 75.5625,22.8906 L75.5625,24.0156 C75.5625,26.5938 77.6719,28.4844 80.5625,28.4844 C81.7813,28.4844 82.9375,28.1875 83.6875,27.6406 C84.2656,27.2344 84.5938,26.7813 84.5938,26.3906 C84.5938,25.9375 84.2031,25.5469 83.7344,25.5469 C83.5156,25.5469 83.3125,25.625 83.125,25.8125 C82.6719,26.2969 82.6719,26.2969 82.4844,26.3906 C82.0625,26.6563 81.375,26.7813 80.6094,26.7813 C78.5625,26.7813 77.2656,25.6875 77.2656,23.9844 L77.2656,22.8906 C77.2656,21.1094 78.5156,19.7969 80.25,19.7969 C80.8281,19.7969 81.4375,19.9531 81.9063,20.2031 C82.3906,20.4844 82.5625,20.7031 82.6563,21.1094 C82.7188,21.5156 82.75,21.6406 82.8906,21.7656 C83.0313,21.9063 83.2656,22.0156 83.4844,22.0156 C83.75,22.0156 84.0156,21.875 84.1875,21.6563 C84.2969,21.5 84.3281,21.3125 84.3281,20.8906 L84.3281,19.4688 C84.3281,19.0313 84.3125,18.9063 84.2188,18.75 C84.0625,18.4844 83.7813,18.3438 83.4844,18.3438 C83.1875,18.3438 82.9844,18.4375 82.7656,18.75 L82.5938,18.6719 Z " fill="#000000"/><text fill="#000000" font-family="sans-serif" font-size="12" lengthAdjust="spacing" textLength="30" x="100.75" y="27.1543">Foo1</text><line style="stroke:#A80036;stroke-width:1.5;" x1="8" x2="191" y1="39" y2="39"/><text fill="#000000" font-family="sans-serif" font-size="11" lengthAdjust="spacing" textLength="70" x="13" y="53.2104">You can use</text><text fill="#000000" font-family="sans-serif" font-size="11" lengthAdjust="spacing" textLength="74" x="13" y="66.0151">several lines</text><line style="stroke:#A80036;stroke-width:1.0;stroke-dasharray:1.0,2.0;" x1="8" x2="191" y1="72.6094" y2="72.6094"/><text fill="#000000" font-family="sans-serif" font-size="11" lengthAdjust="spacing" textLength="69" x="13" y="86.8198">as you want</text><text fill="#000000" font-family="sans-serif" font-size="11" lengthAdjust="spacing" textLength="57" x="13" y="99.6245">and group</text><line style="stroke:#A80036;stroke-width:1.0;" x1="8" x2="191" y1="106.2188" y2="106.2188"/><line style="stroke:#A80036;stroke-width:1.0;" x1="8" x2="191" y1="108.2188" y2="108.2188"/><text fill="#000000" font-family="sans-serif" font-size="11" lengthAdjust="spacing" textLength="90" x="13" y="120.4292">things together.</text><line style="stroke:#A80036;stroke-width:1.5;" x1="8" x2="191" y1="127.0234" y2="127.0234"/><text fill="#000000" font-family="sans-serif" font-size="11" lengthAdjust="spacing" textLength="173" x="13" y="141.2339">You can have as many groups</text><text fill="#000000" font-family="sans-serif" font-size="11" lengthAdjust="spacing" textLength="69" x="13" y="154.0386">as you want</text><line style="stroke:#A80036;stroke-width:1.0;" x1="8" x2="191" y1="160.6328" y2="160.6328"/><text fill="#000000" font-family="sans-serif" font-size="11" lengthAdjust="spacing" textLength="68" x="13" y="174.8433">End of class</text><!--MD5=[3fd616f346a44cd59a91eb10b19e157c]
class User--><rect codeLine="16" fill="#FEFECE" filter="url(#fwzvmr8bfjsld)" height="171.2422" id="User" style="stroke:#A80036;stroke-width:1.5;" width="102" x="227.5" y="8.5"/><ellipse cx="260.95" cy="24.5" fill="#ADD1B2" rx="11" ry="11" style="stroke:#A80036;stroke-width:1.0;"/><path d="M263.2938,20.1719 C262.3563,19.7344 261.7625,19.5938 260.8875,19.5938 C258.2625,19.5938 256.2625,21.6719 256.2625,24.3906 L256.2625,25.5156 C256.2625,28.0938 258.3719,29.9844 261.2625,29.9844 C262.4813,29.9844 263.6375,29.6875 264.3875,29.1406 C264.9656,28.7344 265.2938,28.2813 265.2938,27.8906 C265.2938,27.4375 264.9031,27.0469 264.4344,27.0469 C264.2156,27.0469 264.0125,27.125 263.825,27.3125 C263.3719,27.7969 263.3719,27.7969 263.1844,27.8906 C262.7625,28.1563 262.075,28.2813 261.3094,28.2813 C259.2625,28.2813 257.9656,27.1875 257.9656,25.4844 L257.9656,24.3906 C257.9656,22.6094 259.2156,21.2969 260.95,21.2969 C261.5281,21.2969 262.1375,21.4531 262.6063,21.7031 C263.0906,21.9844 263.2625,22.2031 263.3563,22.6094 C263.4188,23.0156 263.45,23.1406 263.5906,23.2656 C263.7313,23.4063 263.9656,23.5156 264.1844,23.5156 C264.45,23.5156 264.7156,23.375 264.8875,23.1563 C264.9969,23 265.0281,22.8125 265.0281,22.3906 L265.0281,20.9688 C265.0281,20.5313 265.0125,20.4063 264.9188,20.25 C264.7625,19.9844 264.4813,19.8438 264.1844,19.8438 C263.8875,19.8438 263.6844,19.9375 263.4656,20.25 L263.2938,20.1719 Z " fill="#000000"/><text fill="#000000" font-family="sans-serif" font-size="12" lengthAdjust="spacing" textLength="29" x="279.05" y="28.6543">User</text><line style="stroke:#A80036;stroke-width:1.5;" x1="228.5" x2="328.5" y1="40.5" y2="40.5"/><ellipse cx="238.5" cy="68.3047" fill="#84BE84" rx="3" ry="3" style="stroke:#038048;stroke-width:1.0;"/><text fill="#000000" font-family="sans-serif" font-size="11" lengthAdjust="spacing" textLength="61" x="247.5" y="71.5151">getName()</text><ellipse cx="238.5" cy="81.1094" fill="#84BE84" rx="3" ry="3" style="stroke:#038048;stroke-width:1.0;"/><text fill="#000000" font-family="sans-serif" font-size="11" lengthAdjust="spacing" textLength="73" x="247.5" y="84.3198">getAddress()</text><line style="stroke:#A80036;stroke-width:1.0;stroke-dasharray:1.0,2.0;" x1="228.5" x2="238" y1="54.9023" y2="54.9023"/><text fill="#000000" font-family="sans-serif" font-size="11" lengthAdjust="spacing" textLength="81" x="238" y="58.2104">Simple Getter</text><line style="stroke:#A80036;stroke-width:1.0;stroke-dasharray:1.0,2.0;" x1="319" x2="328.5" y1="54.9023" y2="54.9023"/><ellipse cx="238.5" cy="110.7188" fill="#84BE84" rx="3" ry="3" style="stroke:#038048;stroke-width:1.0;"/><text fill="#000000" font-family="sans-serif" font-size="11" lengthAdjust="spacing" textLength="60" x="247.5" y="113.9292">setName()</text><line style="stroke:#A80036;stroke-width:1.0;stroke-dasharray:1.0,2.0;" x1="228.5" x2="242.5" y1="97.3164" y2="97.3164"/><text fill="#000000" font-family="sans-serif" font-size="11" lengthAdjust="spacing" textLength="72" x="242.5" y="100.6245">Some setter</text><line style="stroke:#A80036;stroke-width:1.0;stroke-dasharray:1.0,2.0;" x1="314.5" x2="328.5" y1="97.3164" y2="97.3164"/><text fill="#000000" font-family="sans-serif" font-size="11" lengthAdjust="spacing" textLength="40" x="233.5" y="143.5386">int age</text><line style="stroke:#A80036;stroke-width:1.5;" x1="228.5" x2="244" y1="126.9258" y2="126.9258"/><text fill="#000000" font-family="sans-serif" font-size="11" lengthAdjust="spacing" textLength="69" x="244" y="130.2339">private data</text><line style="stroke:#A80036;stroke-width:1.5;" x1="313" x2="328.5" y1="126.9258" y2="126.9258"/><text fill="#000000" font-family="sans-serif" font-size="11" lengthAdjust="spacing" textLength="90" x="233.5" y="173.1479">String password</text><line style="stroke:#A80036;stroke-width:1.0;" x1="228.5" x2="249.5" y1="156.5352" y2="156.5352"/><text fill="#000000" font-family="sans-serif" font-size="11" lengthAdjust="spacing" textLength="58" x="249.5" y="159.8433">encrypted</text><line style="stroke:#A80036;stroke-width:1.0;" x1="307.5" x2="328.5" y1="156.5352" y2="156.5352"/><!--MD5=[071f12ae80804a14e20ee8266d4328f7]
@startuml
class Foo1 {
  You can use
  several lines
  ..
  as you want
  and group
  ==
  things together.
  __
  You can have as many groups
  as you want
  - -
  End of class
}

class User {
  .. Simple Getter ..
  + getName()
  + getAddress()
  .. Some setter ..
  + setName()
  __ private data __
  int age
  - - encrypted - -
  String password
}
@enduml

PlantUML version 1.2021.2beta2(Unknown compile time)
(GPL source distribution)
Java Runtime: Java(TM) SE Runtime Environment
JVM: Java HotSpot(TM) 64-Bit Server VM
Default Encoding: UTF-8
Language: en
Country: US
--></g></svg>