<?xml version="1.0" encoding="UTF-8" standalone="no"?><svg xmlns="http://www.w3.org/2000/svg" xmlns:xlink="http://www.w3.org/1999/xlink" contentScriptType="application/ecmascript" contentStyleType="text/css" height="194px" preserveAspectRatio="none" style="width:394px;height:194px;" version="1.1" viewBox="0 0 394 194" width="394px" zoomAndPan="magnify"><defs><filter height="300%" id="f1fbfkwplcf7tv" width="300%" x="-1" y="-1"><feGaussianBlur result="blurOut" stdDeviation="2.0"/><feColorMatrix in="blurOut" result="blurOut2" type="matrix" values="0 0 0 0 0 0 0 0 0 0 0 0 0 0 0 0 0 0 .4 0"/><feOffset dx="4.0" dy="4.0" in="blurOut2" result="blurOut3"/><feBlend in="SourceGraphic" in2="blurOut3" mode="normal"/></filter></defs><g><!--MD5=[3f0ef310aaa84a542276992c5216544d]
class Car--><rect codeLine="1" fill="#FEFECE" filter="url(#f1fbfkwplcf7tv)" height="48" id="Car" style="stroke:#A80036;stroke-width:1.5;" width="52" x="164.5" y="7"/><ellipse cx="179.5" cy="23" fill="#ADD1B2" rx="11" ry="11" style="stroke:#A80036;stroke-width:1.0;"/><path d="M181.8438,18.6719 C180.9063,18.2344 180.3125,18.0938 179.4375,18.0938 C176.8125,18.0938 174.8125,20.1719 174.8125,22.8906 L174.8125,24.0156 C174.8125,26.5938 176.9219,28.4844 179.8125,28.4844 C181.0313,28.4844 182.1875,28.1875 182.9375,27.6406 C183.5156,27.2344 183.8438,26.7813 183.8438,26.3906 C183.8438,25.9375 183.4531,25.5469 182.9844,25.5469 C182.7656,25.5469 182.5625,25.625 182.375,25.8125 C181.9219,26.2969 181.9219,26.2969 181.7344,26.3906 C181.3125,26.6563 180.625,26.7813 179.8594,26.7813 C177.8125,26.7813 176.5156,25.6875 176.5156,23.9844 L176.5156,22.8906 C176.5156,21.1094 177.7656,19.7969 179.5,19.7969 C180.0781,19.7969 180.6875,19.9531 181.1563,20.2031 C181.6406,20.4844 181.8125,20.7031 181.9063,21.1094 C181.9688,21.5156 182,21.6406 182.1406,21.7656 C182.2813,21.9063 182.5156,22.0156 182.7344,22.0156 C183,22.0156 183.2656,21.875 183.4375,21.6563 C183.5469,21.5 183.5781,21.3125 183.5781,20.8906 L183.5781,19.4688 C183.5781,19.0313 183.5625,18.9063 183.4688,18.75 C183.3125,18.4844 183.0313,18.3438 182.7344,18.3438 C182.4375,18.3438 182.2344,18.4375 182.0156,18.75 L181.8438,18.6719 Z " fill="#000000"/><text fill="#000000" font-family="sans-serif" font-size="12" lengthAdjust="spacing" textLength="20" x="193.5" y="27.1543">Car</text><line style="stroke:#A80036;stroke-width:1.5;" x1="165.5" x2="215.5" y1="39" y2="39"/><line style="stroke:#A80036;stroke-width:1.5;" x1="165.5" x2="215.5" y1="47" y2="47"/><!--MD5=[eee9d396a8aca12c6c152931e8dc1ab6]
class Driver--><rect fill="#FEFECE" filter="url(#f1fbfkwplcf7tv)" height="48" id="Driver" style="stroke:#A80036;stroke-width:1.5;" width="69" x="7" y="7"/><ellipse cx="22" cy="23" fill="#ADD1B2" rx="11" ry="11" style="stroke:#A80036;stroke-width:1.0;"/><path d="M24.3438,18.6719 C23.4063,18.2344 22.8125,18.0938 21.9375,18.0938 C19.3125,18.0938 17.3125,20.1719 17.3125,22.8906 L17.3125,24.0156 C17.3125,26.5938 19.4219,28.4844 22.3125,28.4844 C23.5313,28.4844 24.6875,28.1875 25.4375,27.6406 C26.0156,27.2344 26.3438,26.7813 26.3438,26.3906 C26.3438,25.9375 25.9531,25.5469 25.4844,25.5469 C25.2656,25.5469 25.0625,25.625 24.875,25.8125 C24.4219,26.2969 24.4219,26.2969 24.2344,26.3906 C23.8125,26.6563 23.125,26.7813 22.3594,26.7813 C20.3125,26.7813 19.0156,25.6875 19.0156,23.9844 L19.0156,22.8906 C19.0156,21.1094 20.2656,19.7969 22,19.7969 C22.5781,19.7969 23.1875,19.9531 23.6563,20.2031 C24.1406,20.4844 24.3125,20.7031 24.4063,21.1094 C24.4688,21.5156 24.5,21.6406 24.6406,21.7656 C24.7813,21.9063 25.0156,22.0156 25.2344,22.0156 C25.5,22.0156 25.7656,21.875 25.9375,21.6563 C26.0469,21.5 26.0781,21.3125 26.0781,20.8906 L26.0781,19.4688 C26.0781,19.0313 26.0625,18.9063 25.9688,18.75 C25.8125,18.4844 25.5313,18.3438 25.2344,18.3438 C24.9375,18.3438 24.7344,18.4375 24.5156,18.75 L24.3438,18.6719 Z " fill="#000000"/><text fill="#000000" font-family="sans-serif" font-size="12" lengthAdjust="spacing" textLength="37" x="36" y="27.1543">Driver</text><line style="stroke:#A80036;stroke-width:1.5;" x1="8" x2="75" y1="39" y2="39"/><line style="stroke:#A80036;stroke-width:1.5;" x1="8" x2="75" y1="47" y2="47"/><!--MD5=[63ed6a0a2dfd613875880437a5e2b06e]
class Wheel--><rect fill="#FEFECE" filter="url(#f1fbfkwplcf7tv)" height="48" id="Wheel" style="stroke:#A80036;stroke-width:1.5;" width="70" x="310.5" y="7"/><ellipse cx="325.5" cy="23" fill="#ADD1B2" rx="11" ry="11" style="stroke:#A80036;stroke-width:1.0;"/><path d="M327.8438,18.6719 C326.9063,18.2344 326.3125,18.0938 325.4375,18.0938 C322.8125,18.0938 320.8125,20.1719 320.8125,22.8906 L320.8125,24.0156 C320.8125,26.5938 322.9219,28.4844 325.8125,28.4844 C327.0313,28.4844 328.1875,28.1875 328.9375,27.6406 C329.5156,27.2344 329.8438,26.7813 329.8438,26.3906 C329.8438,25.9375 329.4531,25.5469 328.9844,25.5469 C328.7656,25.5469 328.5625,25.625 328.375,25.8125 C327.9219,26.2969 327.9219,26.2969 327.7344,26.3906 C327.3125,26.6563 326.625,26.7813 325.8594,26.7813 C323.8125,26.7813 322.5156,25.6875 322.5156,23.9844 L322.5156,22.8906 C322.5156,21.1094 323.7656,19.7969 325.5,19.7969 C326.0781,19.7969 326.6875,19.9531 327.1563,20.2031 C327.6406,20.4844 327.8125,20.7031 327.9063,21.1094 C327.9688,21.5156 328,21.6406 328.1406,21.7656 C328.2813,21.9063 328.5156,22.0156 328.7344,22.0156 C329,22.0156 329.2656,21.875 329.4375,21.6563 C329.5469,21.5 329.5781,21.3125 329.5781,20.8906 L329.5781,19.4688 C329.5781,19.0313 329.5625,18.9063 329.4688,18.75 C329.3125,18.4844 329.0313,18.3438 328.7344,18.3438 C328.4375,18.3438 328.2344,18.4375 328.0156,18.75 L327.8438,18.6719 Z " fill="#000000"/><text fill="#000000" font-family="sans-serif" font-size="12" lengthAdjust="spacing" textLength="38" x="339.5" y="27.1543">Wheel</text><line style="stroke:#A80036;stroke-width:1.5;" x1="311.5" x2="379.5" y1="39" y2="39"/><line style="stroke:#A80036;stroke-width:1.5;" x1="311.5" x2="379.5" y1="47" y2="47"/><!--MD5=[09ce52be0ee7de43c61b6e2d59bf108b]
class Person--><rect fill="#FEFECE" filter="url(#f1fbfkwplcf7tv)" height="48" id="Person" style="stroke:#A80036;stroke-width:1.5;" width="73" x="154" y="132"/><ellipse cx="169" cy="148" fill="#ADD1B2" rx="11" ry="11" style="stroke:#A80036;stroke-width:1.0;"/><path d="M171.3438,143.6719 C170.4063,143.2344 169.8125,143.0938 168.9375,143.0938 C166.3125,143.0938 164.3125,145.1719 164.3125,147.8906 L164.3125,149.0156 C164.3125,151.5938 166.4219,153.4844 169.3125,153.4844 C170.5313,153.4844 171.6875,153.1875 172.4375,152.6406 C173.0156,152.2344 173.3438,151.7813 173.3438,151.3906 C173.3438,150.9375 172.9531,150.5469 172.4844,150.5469 C172.2656,150.5469 172.0625,150.625 171.875,150.8125 C171.4219,151.2969 171.4219,151.2969 171.2344,151.3906 C170.8125,151.6563 170.125,151.7813 169.3594,151.7813 C167.3125,151.7813 166.0156,150.6875 166.0156,148.9844 L166.0156,147.8906 C166.0156,146.1094 167.2656,144.7969 169,144.7969 C169.5781,144.7969 170.1875,144.9531 170.6563,145.2031 C171.1406,145.4844 171.3125,145.7031 171.4063,146.1094 C171.4688,146.5156 171.5,146.6406 171.6406,146.7656 C171.7813,146.9063 172.0156,147.0156 172.2344,147.0156 C172.5,147.0156 172.7656,146.875 172.9375,146.6563 C173.0469,146.5 173.0781,146.3125 173.0781,145.8906 L173.0781,144.4688 C173.0781,144.0313 173.0625,143.9063 172.9688,143.75 C172.8125,143.4844 172.5313,143.3438 172.2344,143.3438 C171.9375,143.3438 171.7344,143.4375 171.5156,143.75 L171.3438,143.6719 Z " fill="#000000"/><text fill="#000000" font-family="sans-serif" font-size="12" lengthAdjust="spacing" textLength="41" x="183" y="152.1543">Person</text><line style="stroke:#A80036;stroke-width:1.5;" x1="155" x2="226" y1="164" y2="164"/><line style="stroke:#A80036;stroke-width:1.5;" x1="155" x2="226" y1="172" y2="172"/><!--MD5=[85884a73f707af3ae230d559cad4fc2c]
link Driver to Car--><path codeLine="3" d="M76.0581,31 C102.8804,31 139.51,31 164.033,31 " fill="none" id="Driver-Car" style="stroke:#A80036;stroke-width:1.0;"/><polygon fill="#000000" points="103.25,19.5664,94.2049,16.6275,94.2049,22.5053,103.25,19.5664" style="stroke:#000000;stroke-width:1.0;"/><text fill="#000000" font-family="sans-serif" font-size="13" lengthAdjust="spacing" textLength="39" x="107.25" y="24.0669">drives</text><!--MD5=[6190aadcc963d15c02367c0199cc5452]
reverse link Car to Wheel--><path codeLine="4" d="M230.109,31 C254.865,31 286.462,31 310.331,31 " fill="none" id="Car-backto-Wheel" style="stroke:#A80036;stroke-width:1.0;"/><polygon fill="#A80036" points="216.794,31,222.794,35,228.794,31,222.794,27,216.794,31" style="stroke:#A80036;stroke-width:1.0;"/><polygon fill="#000000" points="244,19.5664,234.9549,16.6275,234.9549,22.5053,244,19.5664" style="stroke:#000000;stroke-width:1.0;"/><text fill="#000000" font-family="sans-serif" font-size="13" lengthAdjust="spacing" textLength="44" x="248" y="24.0669">have 4</text><!--MD5=[2800f28b8e2a8d078fc1fa2e2aa6715e]
link Car to Person--><path codeLine="5" d="M190.5,55.135 C190.5,77.126 190.5,110.0123 190.5,131.9684 " fill="none" id="Car-Person" style="stroke:#A80036;stroke-width:1.0;"/><polygon fill="#000000" points="195.5,88.5664,192.5611,97.6115,198.4389,97.6115,195.5,88.5664" style="stroke:#000000;stroke-width:1.0;"/><text fill="#000000" font-family="sans-serif" font-size="13" lengthAdjust="spacing" textLength="34" x="204.5" y="98.0669">owns</text><!--MD5=[6246da0242a99f9818c14db31808db0b]
@startuml
class Car

Driver - Car : drives >
Car *- Wheel : have 4 >
Car - - Person : < owns
@enduml

PlantUML version 1.2021.2beta2(Unknown compile time)
(GPL source distribution)
Java Runtime: Java(TM) SE Runtime Environment
JVM: Java HotSpot(TM) 64-Bit Server VM
Default Encoding: UTF-8
Language: en
Country: US
--></g></svg>