<?xml version="1.0" encoding="UTF-8" standalone="no"?><svg xmlns="http://www.w3.org/2000/svg" xmlns:xlink="http://www.w3.org/1999/xlink" contentScriptType="application/ecmascript" contentStyleType="text/css" height="233px" preserveAspectRatio="none" style="width:478px;height:233px;" version="1.1" viewBox="0 0 478 233" width="478px" zoomAndPan="magnify"><defs><filter height="300%" id="fl9lvkqlbsvbg" width="300%" x="-1" y="-1"><feGaussianBlur result="blurOut" stdDeviation="2.0"/><feColorMatrix in="blurOut" result="blurOut2" type="matrix" values="0 0 0 0 0 0 0 0 0 0 0 0 0 0 0 0 0 0 .4 0"/><feOffset dx="4.0" dy="4.0" in="blurOut2" result="blurOut3"/><feBlend in="SourceGraphic" in2="blurOut3" mode="normal"/></filter></defs><g><!--MD5=[c54ba4f61d01a424743e5a1fa0f9e38e]
class Dummy--><rect codeLine="1" fill="#FEFECE" filter="url(#fl9lvkqlbsvbg)" height="48" id="Dummy" style="stroke:#A80036;stroke-width:1.5;" width="77" x="82" y="7"/><ellipse cx="97" cy="23" fill="#ADD1B2" rx="11" ry="11" style="stroke:#A80036;stroke-width:1.0;"/><path d="M99.3438,18.6719 C98.4063,18.2344 97.8125,18.0938 96.9375,18.0938 C94.3125,18.0938 92.3125,20.1719 92.3125,22.8906 L92.3125,24.0156 C92.3125,26.5938 94.4219,28.4844 97.3125,28.4844 C98.5313,28.4844 99.6875,28.1875 100.4375,27.6406 C101.0156,27.2344 101.3438,26.7813 101.3438,26.3906 C101.3438,25.9375 100.9531,25.5469 100.4844,25.5469 C100.2656,25.5469 100.0625,25.625 99.875,25.8125 C99.4219,26.2969 99.4219,26.2969 99.2344,26.3906 C98.8125,26.6563 98.125,26.7813 97.3594,26.7813 C95.3125,26.7813 94.0156,25.6875 94.0156,23.9844 L94.0156,22.8906 C94.0156,21.1094 95.2656,19.7969 97,19.7969 C97.5781,19.7969 98.1875,19.9531 98.6563,20.2031 C99.1406,20.4844 99.3125,20.7031 99.4063,21.1094 C99.4688,21.5156 99.5,21.6406 99.6406,21.7656 C99.7813,21.9063 100.0156,22.0156 100.2344,22.0156 C100.5,22.0156 100.7656,21.875 100.9375,21.6563 C101.0469,21.5 101.0781,21.3125 101.0781,20.8906 L101.0781,19.4688 C101.0781,19.0313 101.0625,18.9063 100.9688,18.75 C100.8125,18.4844 100.5313,18.3438 100.2344,18.3438 C99.9375,18.3438 99.7344,18.4375 99.5156,18.75 L99.3438,18.6719 Z " fill="#000000"/><text fill="#000000" font-family="sans-serif" font-size="12" lengthAdjust="spacing" textLength="45" x="111" y="27.1543">Dummy</text><line style="stroke:#A80036;stroke-width:1.5;" x1="83" x2="158" y1="39" y2="39"/><line style="stroke:#A80036;stroke-width:1.5;" x1="83" x2="158" y1="47" y2="47"/><!--MD5=[d10371c429a20e8e62c953c705282488]
class Foo--><rect fill="#FEFECE" filter="url(#fl9lvkqlbsvbg)" height="48" id="Foo" style="stroke:#A80036;stroke-width:1.5;" width="55" x="7" y="171"/><ellipse cx="22" cy="187" fill="#ADD1B2" rx="11" ry="11" style="stroke:#A80036;stroke-width:1.0;"/><path d="M24.3438,182.6719 C23.4063,182.2344 22.8125,182.0938 21.9375,182.0938 C19.3125,182.0938 17.3125,184.1719 17.3125,186.8906 L17.3125,188.0156 C17.3125,190.5938 19.4219,192.4844 22.3125,192.4844 C23.5313,192.4844 24.6875,192.1875 25.4375,191.6406 C26.0156,191.2344 26.3438,190.7813 26.3438,190.3906 C26.3438,189.9375 25.9531,189.5469 25.4844,189.5469 C25.2656,189.5469 25.0625,189.625 24.875,189.8125 C24.4219,190.2969 24.4219,190.2969 24.2344,190.3906 C23.8125,190.6563 23.125,190.7813 22.3594,190.7813 C20.3125,190.7813 19.0156,189.6875 19.0156,187.9844 L19.0156,186.8906 C19.0156,185.1094 20.2656,183.7969 22,183.7969 C22.5781,183.7969 23.1875,183.9531 23.6563,184.2031 C24.1406,184.4844 24.3125,184.7031 24.4063,185.1094 C24.4688,185.5156 24.5,185.6406 24.6406,185.7656 C24.7813,185.9063 25.0156,186.0156 25.2344,186.0156 C25.5,186.0156 25.7656,185.875 25.9375,185.6563 C26.0469,185.5 26.0781,185.3125 26.0781,184.8906 L26.0781,183.4688 C26.0781,183.0313 26.0625,182.9063 25.9688,182.75 C25.8125,182.4844 25.5313,182.3438 25.2344,182.3438 C24.9375,182.3438 24.7344,182.4375 24.5156,182.75 L24.3438,182.6719 Z " fill="#000000"/><text fill="#000000" font-family="sans-serif" font-size="12" lengthAdjust="spacing" textLength="23" x="36" y="191.1543">Foo</text><line style="stroke:#A80036;stroke-width:1.5;" x1="8" x2="61" y1="203" y2="203"/><line style="stroke:#A80036;stroke-width:1.5;" x1="8" x2="61" y1="211" y2="211"/><!--MD5=[6c8c18b8d4fa3298c600fc3f82908513]
class Foo2--><rect fill="#FEFECE" filter="url(#fl9lvkqlbsvbg)" height="48" id="Foo2" style="stroke:#A80036;stroke-width:1.5;" width="63" x="176" y="171"/><ellipse cx="191" cy="187" fill="#ADD1B2" rx="11" ry="11" style="stroke:#A80036;stroke-width:1.0;"/><path d="M193.3438,182.6719 C192.4063,182.2344 191.8125,182.0938 190.9375,182.0938 C188.3125,182.0938 186.3125,184.1719 186.3125,186.8906 L186.3125,188.0156 C186.3125,190.5938 188.4219,192.4844 191.3125,192.4844 C192.5313,192.4844 193.6875,192.1875 194.4375,191.6406 C195.0156,191.2344 195.3438,190.7813 195.3438,190.3906 C195.3438,189.9375 194.9531,189.5469 194.4844,189.5469 C194.2656,189.5469 194.0625,189.625 193.875,189.8125 C193.4219,190.2969 193.4219,190.2969 193.2344,190.3906 C192.8125,190.6563 192.125,190.7813 191.3594,190.7813 C189.3125,190.7813 188.0156,189.6875 188.0156,187.9844 L188.0156,186.8906 C188.0156,185.1094 189.2656,183.7969 191,183.7969 C191.5781,183.7969 192.1875,183.9531 192.6563,184.2031 C193.1406,184.4844 193.3125,184.7031 193.4063,185.1094 C193.4688,185.5156 193.5,185.6406 193.6406,185.7656 C193.7813,185.9063 194.0156,186.0156 194.2344,186.0156 C194.5,186.0156 194.7656,185.875 194.9375,185.6563 C195.0469,185.5 195.0781,185.3125 195.0781,184.8906 L195.0781,183.4688 C195.0781,183.0313 195.0625,182.9063 194.9688,182.75 C194.8125,182.4844 194.5313,182.3438 194.2344,182.3438 C193.9375,182.3438 193.7344,182.4375 193.5156,182.75 L193.3438,182.6719 Z " fill="#000000"/><text fill="#000000" font-family="sans-serif" font-size="12" lengthAdjust="spacing" textLength="31" x="205" y="191.1543">Foo2</text><line style="stroke:#A80036;stroke-width:1.5;" x1="177" x2="238" y1="203" y2="203"/><line style="stroke:#A80036;stroke-width:1.5;" x1="177" x2="238" y1="211" y2="211"/><!--MD5=[d76d18aa41993d91eba7c1d001801f01]
link Dummy to Foo--><path codeLine="2" d="M81.7846,44.684 C63.0626,52.995 42.3414,65.926 31.5,85 C17.5853,109.481 20.8539,142.3138 26.0348,165.5269 " fill="none" id="Dummy-to-Foo" style="stroke:#A80036;stroke-width:1.0;"/><polygon fill="#A80036" points="27.2365,170.6209,29.063,160.9429,26.0884,165.7545,21.2767,162.7799,27.2365,170.6209" style="stroke:#A80036;stroke-width:1.0;"/><text fill="#000000" font-family="sans-serif" font-size="13" lengthAdjust="spacing" textLength="34" x="81" y="98.0669">A link</text><path d="M36.5,107.1328 L36.5,132.1328 L155.5,132.1328 L155.5,117.1328 L145.5,107.1328 L36.5,107.1328 " fill="#FF0000" filter="url(#fl9lvkqlbsvbg)" style="stroke:#A80036;stroke-width:1.0;"/><path d="M145.5,107.1328 L145.5,117.1328 L155.5,117.1328 L145.5,107.1328 " fill="#FF0000" style="stroke:#A80036;stroke-width:1.0;"/><text fill="#000000" font-family="sans-serif" font-size="13" lengthAdjust="spacing" textLength="98" x="42.5" y="124.1997">note that is red</text><!--MD5=[44c5d7c7a374be28da000d8b4a09b677]
link Dummy to Foo2--><path codeLine="5" d="M145.142,55.193 C153.4,63.934 162.12,74.351 168.5,85 C183.769,110.486 194.408,142.8818 200.673,165.7105 " fill="none" id="Dummy-to-Foo2" style="stroke:#A80036;stroke-width:1.0;"/><polygon fill="#A80036" points="202.019,170.7189,203.5449,160.989,200.7207,165.8904,195.8193,163.0662,202.019,170.7189" style="stroke:#A80036;stroke-width:1.0;"/><text fill="#000000" font-family="sans-serif" font-size="13" lengthAdjust="spacing" textLength="76" x="193.5" y="117.6333">Another link</text><path d="M275.5,91 L275.5,131 L469.5,131 L469.5,101 L459.5,91 L275.5,91 " fill="#0000FF" filter="url(#fl9lvkqlbsvbg)" style="stroke:#A80036;stroke-width:1.0;"/><path d="M459.5,91 L459.5,101 L469.5,101 L459.5,91 " fill="#0000FF" style="stroke:#A80036;stroke-width:1.0;"/><text fill="#000000" font-family="sans-serif" font-size="13" lengthAdjust="spacing" textLength="173" x="281.5" y="108.0669">this is my note on right link</text><text fill="#000000" font-family="sans-serif" font-size="13" lengthAdjust="spacing" textLength="70" x="281.5" y="123.1997">and in blue</text><!--MD5=[8c132c817581e757d5cae1c33875bc8a]
@startuml
class Dummy
Dummy - -> Foo : A link
note on link #red: note that is red

Dummy - -> Foo2 : Another link
note right on link #blue
this is my note on right link
and in blue
end note
@enduml

PlantUML version 1.2021.2beta2(Unknown compile time)
(GPL source distribution)
Java Runtime: Java(TM) SE Runtime Environment
JVM: Java HotSpot(TM) 64-Bit Server VM
Default Encoding: UTF-8
Language: en
Country: US
--></g></svg>